<svg xmlns="http://www.w3.org/2000/svg" width="96" height="97" fill="none" viewBox="0 0 96 97">
  <g id="elements" style="isolation: isolate;">
    <defs id="dynamic-definitions"></defs>
    <defs id="definitions"></defs>
    <g id="elements-wrapper">
      <path id="path-wq8m3aa4di" d="M61.6084,69.3909C60.9677,70.9188,61.6869,72.6769,63.2148,73.3177C68.5091,75.5378,71.4885,80.1478,72.2249,81.9408C72.8544,83.4735,74.6071,84.2056,76.1398,83.5761C77.6724,82.9467,78.4045,81.1939,77.7751,79.6613C76.5948,76.7877,72.641,70.7643,65.5352,67.7845C64.0072,67.1437,62.2492,67.863,61.6084,69.3909Z" transform="translate(0.849674 -12.492386)" clip-rule="evenodd" fill="rgb(142,46,16)" fill-rule="evenodd" stroke="none" style="mix-blend-mode: normal; paint-order: fill;"></path>
      <path id="path-gu0qhz9h35s" d="M67.2091,67.5987C67.0283,68.9675,67.9914,70.2238,69.3602,70.4045C72.1918,70.7785,75.109,72.091,77.5432,73.5984C80.0271,75.1365,81.673,76.6649,82.074,77.1912C82.9107,78.2894,84.4794,78.5014,85.5777,77.6646C86.6759,76.8279,86.8879,75.2592,86.0511,74.161C85.1188,72.9372,82.8897,71.0281,80.1756,69.3475C77.4119,67.6361,73.8083,65.9486,70.0149,65.4476C68.6461,65.2668,67.3899,66.2299,67.2091,67.5987Z" transform="translate(0.537186 -12.492387)" clip-rule="evenodd" fill="rgb(120,31,3)" fill-rule="evenodd" stroke="none" style="mix-blend-mode: normal; paint-order: fill;"></path>
      <path id="path-tfc7bru98l" d="M79.5762,66.8208C81.8693,67.4035,83.5018,68.1098,84.1348,68.5017C85.074,69.0831,86.3067,68.793,86.8881,67.8539C87.4695,66.9147,87.1794,65.682,86.2402,65.1006C85.1233,64.4092,83.0557,63.5779,80.5614,62.944C78.0277,62.3001,74.8991,61.8197,71.622,61.9272C70.518,61.9634,69.6524,62.8877,69.6886,63.9916C69.7248,65.0956,70.6491,65.9612,71.7531,65.925C74.5759,65.8325,77.3224,66.248,79.5762,66.8208Z" transform="translate(0.537189 -12.768886)" clip-rule="evenodd" fill="rgb(102,28,4)" fill-rule="evenodd" stroke="none" style="mix-blend-mode: normal; paint-order: fill;"></path>
      <g id="g-212p1srui2k" transform="translate(0.537192 -12.492388)" style="mix-blend-mode: normal; paint-order: fill;">
        <path id="path-v8nftu6kc3j" d="M34.9541,69.3909C35.5949,70.9188,34.8757,72.6769,33.3477,73.3177C28.0535,75.5378,25.0741,80.1478,24.3376,81.9408C23.7081,83.4735,21.9554,84.2056,20.4228,83.5761C18.8902,82.9467,18.158,81.1939,18.7875,79.6613C19.9677,76.7877,23.9216,70.7643,31.0274,67.7845C32.5553,67.1437,34.3134,67.863,34.9541,69.3909Z" transform="translate(0.000013 -0.187389)" clip-rule="evenodd" fill="rgb(142,46,16)" fill-rule="evenodd" stroke="none" style="mix-blend-mode: normal; paint-order: fill;"></path>
        <path id="path-1nv7wvmdgfp" d="M26.4071,73.6924C26.6396,74.1933,26.4221,74.788,25.9212,75.0205C25.7453,75.1022,25.4462,75.3282,25.0421,75.7481C24.6566,76.1487,24.2394,76.6575,23.8224,77.2144C22.989,78.3275,22.2037,79.569,21.7392,80.3667C21.4613,80.844,20.8491,81.0056,20.3719,80.7277C19.8946,80.4498,19.733,79.8376,20.0109,79.3603C20.5047,78.5122,21.3319,77.2037,22.2214,76.0157C22.6659,75.4221,23.1377,74.8427,23.601,74.3613C24.0456,73.8993,24.5548,73.4499,25.0789,73.2065C25.5799,72.9739,26.1745,73.1915,26.4071,73.6924Z" transform="translate(0.00001 0)" clip-rule="evenodd" fill="rgb(193,77,40)" fill-rule="evenodd" stroke="none" style="mix-blend-mode: normal; paint-order: fill;"/>
      </g>
      <g id="g-1zrgaclku52" transform="translate(0.537189 -12.49238)" style="mix-blend-mode: normal; paint-order: fill;">
        <path id="path-8j6w0ge8yo6" d="M29.3535,67.5987C29.5343,68.9675,28.5712,70.2238,27.2024,70.4045C24.3708,70.7785,21.4536,72.091,19.0193,73.5984C16.5355,75.1365,14.8896,76.6649,14.4886,77.1912C13.6518,78.2894,12.0832,78.5014,10.9849,77.6646C9.88664,76.8279,9.67466,75.2592,10.5114,74.161C11.4438,72.9372,13.6729,71.0281,16.387,69.3475C19.1506,67.6361,22.7542,65.9486,26.5477,65.4476C27.9165,65.2668,29.1727,66.2299,29.3535,67.5987Z" clip-rule="evenodd" fill="rgb(120,31,3)" fill-rule="evenodd" stroke="none" style="mix-blend-mode: normal; paint-order: fill;"></path>
        <path id="path-yi8prvu4vj" d="M15.2145,73.6523C14.5051,74.2655,14.0749,74.7372,13.9267,74.9917C13.6488,75.469,13.0366,75.6306,12.5594,75.3527C12.0821,75.0748,11.9205,74.4626,12.1984,73.9853C12.5294,73.4169,13.1903,72.7584,13.9066,72.1392C14.6539,71.4933,15.5661,70.8024,16.5016,70.1685C17.4358,69.5354,18.413,68.9457,19.292,68.5097C19.7312,68.2918,20.1604,68.105,20.5574,67.9708C20.9406,67.8412,21.3567,67.7385,21.75,67.7385C22.3023,67.7385,22.75,68.1862,22.75,68.7385C22.75,69.2908,22.3023,69.7385,21.75,69.7385C21.6746,69.7385,21.4977,69.7641,21.198,69.8654C20.9123,69.962,20.569,70.1087,20.1808,70.3014C19.4048,70.6863,18.507,71.2255,17.6235,71.8242C16.7413,72.422,15.893,73.0658,15.2145,73.6523Z" clip-rule="evenodd" fill="rgb(167,58,24)" fill-rule="evenodd" stroke="none" style="mix-blend-mode: normal; paint-order: fill;"></path>
      </g>
      <path id="path-1svyhtbwlz4" d="M16.9864,66.8208C14.6932,67.4035,13.0608,68.1098,12.4277,68.5017C11.4886,69.0831,10.2559,68.793,9.6745,67.8539C9.09311,66.9147,9.38315,65.682,10.3223,65.1006C11.4393,64.4092,13.5068,63.5779,16.0012,62.944C18.5349,62.3001,21.6634,61.8197,24.9406,61.9272C26.0445,61.9634,26.9102,62.8877,26.874,63.9916C26.8378,65.0956,25.9135,65.9612,24.8095,65.925C21.9866,65.8325,19.2402,66.248,16.9864,66.8208Z" transform="translate(0.537187 -12.492387)" clip-rule="evenodd" fill="rgb(102,28,4)" fill-rule="evenodd" stroke="none" style="mix-blend-mode: normal; paint-order: fill;"></path>
      <g id="g-2nuyg40pf78" transform="translate(0 0.000001)" style="mix-blend-mode: normal; paint-order: fill;">
        <g id="g-awuir5owka" transform="translate(0 0.000001)" style="mix-blend-mode: normal; paint-order: fill;">
          <path id="path-92qjjnhrcme" d="M31.7848,26.7651C32.8402,26.4392,33.96,27.0305,34.2859,28.0859C34.6862,29.382,35.5498,31.6204,36.805,33.9717C38.0685,36.3387,39.658,38.6856,41.4649,40.3163C42.2849,41.0563,42.3498,42.321,41.6098,43.141C40.8697,43.961,39.6051,44.0259,38.7851,43.2859C36.492,41.2165,34.644,38.4176,33.2763,35.8554C31.9002,33.2776,30.9388,30.8035,30.464,29.2662C30.1381,28.2108,30.7294,27.091,31.7848,26.7651ZM61.1899,25.826C62.2807,25.9999,63.024,27.0251,62.8501,28.1159C62.603,29.6658,62.0368,32.1592,61.1262,34.7336C60.2275,37.2743,58.9257,40.091,57.1222,42.1271C56.3898,42.954,55.1258,43.0306,54.299,42.2983C53.4721,41.5659,53.3955,40.3019,54.1278,39.475C55.4244,38.0112,56.5184,35.7653,57.3551,33.3998C58.1799,31.0679,58.6887,28.8113,58.9,27.4862C59.0739,26.3954,60.0991,25.6521,61.1899,25.826Z" transform="translate(0.537182 -12.492387)" clip-rule="evenodd" fill="rgb(142,46,16)" fill-rule="evenodd" stroke="none" style="mix-blend-mode: normal; paint-order: fill;"></path>
          <path id="path-j3gd3zvgi2d" d="M40.5,26.9845C40.5,30.473,37.366,33.301,33.5,33.301C29.634,33.301,26.5,30.473,26.5,26.9845C26.5,23.496,29.634,20.668,33.5,20.668C37.366,20.668,40.5,23.496,40.5,26.9845Z" transform="matrix(1 0 0 1.316631 0.537181 -21.036516)" fill="rgb(255,221,197)" stroke="none" style="mix-blend-mode: normal; paint-order: fill;"></path>
          <path id="path-aatbxwkpmq9" d="M42.5,26.9845C42.5,31.7659,38.2723,35.301,33.5,35.301C28.7277,35.301,24.5,31.7659,24.5,26.9845C24.5,22.2031,28.7277,18.668,33.5,18.668C38.2723,18.668,42.5,22.2031,42.5,26.9845ZM33.5,33.301C37.366,33.301,40.5,30.473,40.5,26.9845C40.5,23.496,37.366,20.668,33.5,20.668C29.634,20.668,26.5,23.496,26.5,26.9845C26.5,30.473,29.634,33.301,33.5,33.301Z" transform="translate(0.537181 -12.492387)" clip-rule="evenodd" fill="rgb(102,28,4)" fill-rule="evenodd" stroke="none" style="mix-blend-mode: normal; paint-order: fill;"></path>
          <path id="path-2fhov31xr65" d="M68,26.9845C68,30.473,64.866,33.301,61,33.301C57.134,33.301,54,30.473,54,26.9845C54,23.496,57.134,20.668,61,20.668C64.866,20.668,68,23.496,68,26.9845Z" transform="translate(0.537181 -12.492387)" fill="rgb(255,221,197)" stroke="none" style="mix-blend-mode: normal; paint-order: fill;"></path>
          <path id="path-l6abtg696mr" d="M70,26.9845C70,31.7659,65.7723,35.301,61,35.301C56.2277,35.301,52,31.7659,52,26.9845C52,22.2031,56.2277,18.668,61,18.668C65.7723,18.668,70,22.2031,70,26.9845ZM61,33.301C64.866,33.301,68,30.473,68,26.9845C68,23.496,64.866,20.668,61,20.668C57.134,20.668,54,23.496,54,26.9845C54,30.473,57.134,33.301,61,33.301Z" transform="translate(0.537181 -12.492387)" clip-rule="evenodd" fill="rgb(102,28,4)" fill-rule="evenodd" stroke="none" style="mix-blend-mode: normal; paint-order: fill;"></path>
          <path id="path-ju4yvu0c0bq" d="M32.2231,22.633C32.3504,23.1705,32.0179,23.7093,31.4805,23.8366C30.7902,24.0001,30.2452,24.4092,29.8319,24.8972C29.412,25.3931,29.17,25.9228,29.0828,26.2134C28.9241,26.7423,28.3667,27.0425,27.8377,26.8838C27.3087,26.7251,27.0085,26.1677,27.1672,25.6387C27.33,25.0959,27.7005,24.3194,28.3056,23.6048C28.9173,22.8824,29.8099,22.1769,31.0196,21.8904C31.557,21.7631,32.0958,22.0956,32.2231,22.633ZM60.0356,22.0674C60.1629,22.6048,59.8304,23.1436,59.293,23.2709C58.6027,23.4344,58.0577,23.8435,57.6444,24.3316C57.2245,24.8274,56.9825,25.3571,56.8953,25.6477C56.7366,26.1767,56.1792,26.4769,55.6502,26.3182C55.1212,26.1595,54.821,25.602,54.9797,25.073C55.1425,24.5303,55.513,23.7537,56.1181,23.0391C56.7298,22.3167,57.6224,21.6113,58.8321,21.3248C59.3695,21.1975,59.9083,21.53,60.0356,22.0674Z" transform="translate(0.537183 -12.492387)" clip-rule="evenodd" fill="rgb(255,255,255)" fill-rule="evenodd" stroke="none" style="mix-blend-mode: normal; paint-order: fill;"></path>
          <path id="path-95hf9gctvb" d="M35.6194,26.2526C35.6194,27.591,34.5344,28.676,33.1959,28.676C31.8575,28.676,30.7725,27.591,30.7725,26.2526C30.7725,24.9141,31.8575,23.8291,33.1959,23.8291C34.5344,23.8291,35.6194,24.9141,35.6194,26.2526ZM63.2985,26.2526C63.2985,27.591,62.2134,28.676,60.875,28.676C59.5366,28.676,58.4515,27.591,58.4515,26.2526C58.4515,24.9141,59.5366,23.8291,60.875,23.8291C62.2134,23.8291,63.2985,24.9141,63.2985,26.2526Z" transform="translate(0.537182 -12.492387)" fill="rgb(57,28,28)" stroke="none" style="mix-blend-mode: normal; paint-order: fill;"></path>
        </g>
        <g id="g-nzj5mpn1yoc" transform="translate(0.000001 0.000007)" style="mix-blend-mode: normal; paint-order: fill;">
          <path id="path-elurcq5x3g4" d="M23.1875,53.176C12.3875,55.7696,5.18751,43.8065,7.62503,34.926C12.625,39.9898,16.875,43.7036,18.375,43.8065C19.275,42.6949,17.9375,38.426,17.125,34.926C24.0625,37.926,27.125,46.1135,23.1875,53.176Z" transform="translate(0.537181 -12.492387)" fill="rgb(255,100,50)" stroke="none" style="mix-blend-mode: normal; paint-order: fill;"></path>
          <path id="path-bx6i3dsm2bm" d="M7.11939,32.991C7.81079,32.8104,8.54606,33.0123,9.04816,33.5208C11.5286,36.0329,13.7917,38.1779,15.5986,39.6949C15.867,39.9203,16.1221,40.1291,16.3636,40.3211C16.1773,39.4272,15.9426,38.4897,15.6979,37.5124C15.5246,36.8206,15.3464,36.1088,15.1768,35.3783C15.0061,34.643,15.264,33.8741,15.8437,33.3904C16.4233,32.9068,17.2259,32.7907,17.9188,33.0904C25.9235,36.5518,29.4587,46.035,24.9344,54.15C24.6622,54.6382,24.1981,54.9903,23.6545,55.1208C17.3339,56.6387,12.0717,53.8405,8.84481,49.5573C5.66842,45.3412,4.29593,39.4988,5.69636,34.3967C5.88551,33.7076,6.42798,33.1717,7.11939,32.991ZM18.375,43.8065C17.0462,43.7154,13.5592,40.7904,9.30458,36.6036C8.75648,36.0643,8.19564,35.504,7.62502,34.9261C7.41009,35.7091,7.27009,36.5161,7.20089,37.335C6.48525,45.8031,13.3398,55.541,23.1875,53.1761C26.6394,46.9845,24.7114,39.9283,19.509,36.2608C18.7772,35.7449,17.9806,35.296,17.125,34.9261C17.2768,35.5801,17.447,36.2609,17.6175,36.943C17.664,37.1291,17.7105,37.3153,17.7567,37.501C18.4472,40.2781,19.061,42.9593,18.375,43.8065Z" transform="translate(0.537182 -12.492387)" clip-rule="evenodd" fill="rgb(142,46,16)" fill-rule="evenodd" stroke="none" style="mix-blend-mode: normal; paint-order: fill;"></path>
          <path id="path-mfscatanzi" d="M9.32553,39.2045C9.86209,39.0736,10.4031,39.4025,10.534,39.9391C11.1584,42.4992,12.1596,45.5439,14.5345,47.3113C14.9776,47.641,15.0694,48.2675,14.7397,48.7105C14.41,49.1536,13.7835,49.2455,13.3405,48.9157C10.3403,46.6831,9.21653,42.9778,8.59097,40.413C8.4601,39.8764,8.78898,39.3354,9.32553,39.2045Z" transform="translate(0.537179 -12.492387)" clip-rule="evenodd" fill="rgb(255,188,167)" fill-rule="evenodd" stroke="none" style="mix-blend-mode: normal; paint-order: fill;"></path>
        </g>
        <g id="g-fyv0g60i06h" transform="translate(0.000004 0.000007)" style="mix-blend-mode: normal; paint-order: fill;">
          <path id="path-a8raq6fj9gv" d="M71.7381,53.301C82.5381,55.8946,89.7381,43.9315,87.3006,35.051C82.3006,40.1148,78.0506,43.8286,76.5506,43.9315C75.6506,42.8199,76.9881,38.551,77.8006,35.051C70.8631,38.051,67.8006,46.2385,71.7381,53.301Z" transform="translate(0.537184 -12.492387)" fill="rgb(255,100,50)" stroke="none" style="mix-blend-mode: normal; paint-order: fill;"></path>
          <path id="path-g8bnnfmwo3" d="M87.8063,33.116C87.1149,32.9354,86.3796,33.1373,85.8775,33.6458C83.3971,36.1579,81.1339,38.3029,79.3271,39.8199C79.0587,40.0453,78.8035,40.2541,78.5621,40.4461C78.7484,39.5522,78.9831,38.6147,79.2278,37.6374C79.401,36.9456,79.5793,36.2338,79.7488,35.5033C79.9195,34.768,79.6616,33.9991,79.082,33.5154C78.5023,33.0318,77.6997,32.9157,77.0068,33.2154C69.0022,36.6768,65.467,46.16,69.9913,54.275C70.2635,54.7632,70.7276,55.1153,71.2711,55.2458C77.5918,56.7637,82.8539,53.9655,86.0808,49.6823C89.2572,45.4662,90.6297,39.6238,89.2293,34.5217C89.0401,33.8326,88.4977,33.2967,87.8063,33.116ZM76.5506,43.9315C77.8795,43.8404,81.3664,40.9154,85.6211,36.7286C86.1692,36.1893,86.73,35.629,87.3006,35.0511C87.5156,35.8341,87.6556,36.6411,87.7248,37.46C88.4404,45.9281,81.5858,55.666,71.7381,53.3011C68.2862,47.1095,70.2143,40.0533,75.4167,36.3858C76.1485,35.8699,76.9451,35.421,77.8006,35.0511C77.6488,35.7051,77.4787,36.3859,77.3082,37.068C77.2617,37.2541,77.2152,37.4403,77.169,37.626C76.4785,40.4031,75.8647,43.0843,76.5506,43.9315Z" transform="translate(0.537182 -12.492387)" clip-rule="evenodd" fill="rgb(142,46,16)" fill-rule="evenodd" stroke="none" style="mix-blend-mode: normal; paint-order: fill;"></path>
          <path id="path-acz5voaikah" d="M85.8493,39.9404C86.6353,40.2024,87.06,41.0519,86.798,41.8378C85.7873,44.87,81.9368,51.2251,74.3966,52.2863C73.5762,52.4018,72.8176,51.8303,72.7021,51.01C72.5867,50.1897,73.1581,49.431,73.9785,49.3156C79.9382,48.4768,83.1294,43.3569,83.952,40.8891C84.214,40.1032,85.0634,39.6784,85.8493,39.9404Z" transform="translate(0.537185 -12.492387)" clip-rule="evenodd" fill="rgb(217,75,30)" fill-rule="evenodd" stroke="none" style="mix-blend-mode: normal; paint-order: fill;"></path>
        </g>
        <path id="path-2xbcs0y7ggk" d="M77.6875,58.934C77.6875,69.639,64.5499,78.317,48.3438,78.317C32.1376,78.317,19,69.639,19,58.934C19,48.2291,32.1376,39.551,48.3438,39.551C64.5499,39.551,77.6875,48.2291,77.6875,58.934Z" transform="translate(0.61179 -12.492387)" fill="rgb(249,119,78)" stroke="none" style="mix-blend-mode: normal; paint-order: fill;"></path>
        <path id="path-cuacxzey9pg" d="M70.1952,74.3087C64.5143,78.0612,56.7829,80.317,48.3438,80.317C39.9046,80.317,32.1732,78.0612,26.4923,74.3087C20.8271,70.5665,17,65.1719,17,58.934C17,52.6961,20.8271,47.3015,26.4923,43.5594C32.1732,39.8069,39.9046,37.551,48.3438,37.551C56.7829,37.551,64.5143,39.8069,70.1952,43.5594C75.8604,47.3015,79.6875,52.6961,79.6875,58.934C79.6875,65.1719,75.8604,70.5665,70.1952,74.3087ZM48.3438,78.317C64.5499,78.317,77.6875,69.639,77.6875,58.934C77.6875,48.2291,64.5499,39.551,48.3438,39.551C32.1376,39.551,19,48.2291,19,58.934C19,69.639,32.1376,78.317,48.3438,78.317Z" transform="translate(0.537181 -12.492387)" clip-rule="evenodd" fill="rgb(142,46,16)" fill-rule="evenodd" stroke="none" style="mix-blend-mode: normal; paint-order: fill;"></path>
        <path id="path-1iorzrmqt7i" d="M35.9323,76.317C55.5068,76.317,71.375,65.8352,71.375,52.9053C71.375,50.3443,70.7525,47.8793,69.6019,45.5728C74.6122,49.0498,77.6875,53.7547,77.6875,58.934C77.6875,69.639,64.5499,78.317,48.3438,78.317C43.6731,78.317,39.2573,77.5962,35.3374,76.3138C35.5353,76.3159,35.7336,76.317,35.9323,76.317Z" transform="translate(0.537182 -12.492387)" clip-rule="evenodd" fill="rgb(225,99,59)" fill-rule="evenodd" stroke="none" style="mix-blend-mode: normal; paint-order: fill;"></path>
        <path id="path-5n3ydwrg6y" d="M48.875,44.426C49.7218,47.0873,42.75,48.301,36.875,54.676C31.0936,60.9495,24.9061,62.8202,23.7046,56.8299C22.5031,50.8395,28.8807,44.5088,37.9494,42.6899C45.375,41.926,48,41.676,48.875,44.426Z" transform="translate(0.537182 -12.492386)" fill="rgb(255,150,116)" stroke="none" style="mix-blend-mode: normal; paint-order: fill;"></path>
        <path id="path-y6pcutkysz" d="M48.875,44.426C49.7218,47.0873,42.75,48.301,36.875,54.676C31.0936,60.9495,24.9061,62.8202,23.7046,56.8299C22.5031,50.8395,28.8807,44.5088,37.9494,42.6899C45.375,41.926,48,41.676,48.875,44.426Z" transform="matrix(-0.304777 -0.315869 0.47878 -0.461967 35.901651 77.966473)" fill="rgb(177,49,31)" stroke="none" style="mix-blend-mode: normal; paint-order: fill;"></path>
        <path id="path-blxjl9cbscl" d="M41.7437,44.1191C41.8056,44.6679,41.411,45.163,40.8622,45.225C37.9435,45.5545,35.1021,46.7248,32.7729,48.2014C30.4266,49.6889,28.7008,51.4222,27.935,52.7897C27.6652,53.2716,27.0558,53.4435,26.5739,53.1736C26.092,52.9038,25.9201,52.2944,26.19,51.8125C27.1742,50.055,29.1921,48.1034,31.7021,46.5122C34.2291,44.9102,37.3565,43.6081,40.6378,43.2376C41.1866,43.1756,41.6817,43.5703,41.7437,44.1191Z" transform="translate(0.537182 -12.492387)" clip-rule="evenodd" fill="rgb(255,211,197)" fill-rule="evenodd" stroke="none" style="mix-blend-mode: normal; paint-order: fill;"></path>
        <path id="path-n8sbhwxnxrk" d="M51.5,74.3635C51.5,75.0884,50.8284,75.6761,50,75.6761C49.1716,75.6761,48.5,75.0884,48.5,74.3635C48.5,73.6387,49.1716,73.051,50,73.051C50.8284,73.051,51.5,73.6387,51.5,74.3635ZM62,73.4986C62,74.2234,61.3284,74.8111,60.5,74.8111C59.6716,74.8111,59,74.2234,59,73.4986C59,72.7737,59.6716,72.186,60.5,72.186C61.3284,72.186,62,72.7737,62,73.4986ZM69.75,64.044C69.75,64.7688,69.0784,65.3565,68.25,65.3565C67.4216,65.3565,66.75,64.7688,66.75,64.044C66.75,63.3191,67.4216,62.7314,68.25,62.7314C69.0784,62.7314,69.75,63.3191,69.75,64.044ZM65.3125,62.4668C65.3125,63.1917,64.6409,63.7793,63.8125,63.7793C62.9841,63.7793,62.3125,63.1917,62.3125,62.4668C62.3125,61.7419,62.9841,61.1543,63.8125,61.1543C64.6409,61.1543,65.3125,61.7419,65.3125,62.4668ZM75.125,63.8479C75.125,64.5728,74.4534,65.1604,73.625,65.1604C72.7966,65.1604,72.125,64.5728,72.125,63.8479C72.125,63.123,72.7966,62.5354,73.625,62.5354C74.4534,62.5354,75.125,63.123,75.125,63.8479ZM71.625,67.1057C71.625,67.5588,71.2053,67.926,70.6875,67.926C70.1697,67.926,69.75,67.5588,69.75,67.1057C69.75,66.6527,70.1697,66.2854,70.6875,66.2854C71.2053,66.2854,71.625,66.6527,71.625,67.1057ZM60.0625,65.1604C60.0625,65.6135,59.6428,65.9807,59.125,65.9807C58.6072,65.9807,58.1875,65.6135,58.1875,65.1604C58.1875,64.7074,58.6072,64.3401,59.125,64.3401C59.6428,64.3401,60.0625,64.7074,60.0625,65.1604ZM71.625,60.334C71.625,60.787,71.2053,61.1543,70.6875,61.1543C70.1697,61.1543,69.75,60.787,69.75,60.334C69.75,59.8809,70.1697,59.5137,70.6875,59.5137C71.2053,59.5137,71.625,59.8809,71.625,60.334ZM64.1875,65.9807C64.1875,66.4338,63.7678,66.801,63.25,66.801C62.7322,66.801,62.3125,66.4338,62.3125,65.9807C62.3125,65.5277,62.7322,65.1604,63.25,65.1604C63.7678,65.1604,64.1875,65.5277,64.1875,65.9807ZM57.8125,68.4182C57.8125,68.8713,57.3928,69.2385,56.875,69.2385C56.3572,69.2385,55.9375,68.8713,55.9375,68.4182C55.9375,67.9652,56.3572,67.5979,56.875,67.5979C57.3928,67.5979,57.8125,67.9652,57.8125,68.4182ZM51.875,69.7307C51.875,70.1838,51.4553,70.551,50.9375,70.551C50.4197,70.551,50,70.1838,50,69.7307C50,69.2777,50.4197,68.9104,50.9375,68.9104C51.4553,68.9104,51.875,69.2777,51.875,69.7307ZM56.5,65.9807C56.5,66.4338,56.0803,66.801,55.5625,66.801C55.0447,66.801,54.625,66.4338,54.625,65.9807C54.625,65.5277,55.0447,65.1604,55.5625,65.1604C56.0803,65.1604,56.5,65.5277,56.5,65.9807ZM76.0625,59.7542C76.0625,60.2072,75.6428,60.5745,75.125,60.5745C74.6072,60.5745,74.1875,60.2072,74.1875,59.7542C74.1875,59.3011,74.6072,58.9338,75.125,58.9338C75.6428,58.9338,76.0625,59.3011,76.0625,59.7542ZM67.6875,58.6934C67.6875,59.1464,67.2678,59.5137,66.75,59.5137C66.2322,59.5137,65.8125,59.1464,65.8125,58.6934C65.8125,58.2403,66.2322,57.873,66.75,57.873C67.2678,57.873,67.6875,58.2403,67.6875,58.6934ZM74.5625,56.1526C74.5625,56.6056,74.1428,56.9729,73.625,56.9729C73.1072,56.9729,72.6875,56.6056,72.6875,56.1526C72.6875,55.6995,73.1072,55.3323,73.625,55.3323C74.1428,55.3323,74.5625,55.6995,74.5625,56.1526ZM46.6875,75.6316C46.6875,76.0847,46.2678,76.4519,45.75,76.4519C45.2322,76.4519,44.8125,76.0847,44.8125,75.6316C44.8125,75.1785,45.2322,74.8113,45.75,74.8113C46.2678,74.8113,46.6875,75.1785,46.6875,75.6316ZM58.1875,74.8557C58.1875,75.3088,57.7678,75.676,57.25,75.676C56.7322,75.676,56.3125,75.3088,56.3125,74.8557C56.3125,74.4027,56.7322,74.0354,57.25,74.0354C57.7678,74.0354,58.1875,74.4027,58.1875,74.8557ZM62.3125,69.2385C62.3125,69.9634,61.6409,70.5511,60.8125,70.5511C59.9841,70.5511,59.3125,69.9634,59.3125,69.2385C59.3125,68.5137,59.9841,67.926,60.8125,67.926C61.6409,67.926,62.3125,68.5137,62.3125,69.2385ZM68.25,69.2385C68.25,70.2806,67.2846,71.1253,66.0938,71.1253C64.9029,71.1253,63.9375,70.2806,63.9375,69.2385C63.9375,68.1965,64.9029,67.3518,66.0938,67.3518C67.2846,67.3518,68.25,68.1965,68.25,69.2385ZM56.4938,72.1862C56.4938,73.0893,55.6571,73.8214,54.625,73.8214C53.5929,73.8214,52.7562,73.0893,52.7562,72.1862C52.7562,71.2831,53.5929,70.551,54.625,70.551C55.6571,70.551,56.4938,71.2831,56.4938,72.1862Z" transform="translate(0.537181 -12.492386)" fill="rgb(185,68,31)" stroke="none" style="mix-blend-mode: normal; paint-order: fill;"></path>
      </g>
    </g>
  </g>
</svg>