<svg xmlns="http://www.w3.org/2000/svg" width="65" height="65" xml:space="preserve"><ellipse fill="#FA0" cx="32.5" cy="42.436" rx="10.61" ry="4.166"/><path fill="#FF7F00" d="M32.501 38.271c5.861 0 10.609 1.863 10.609 4.164s-4.748 4.166-10.609 4.166"/><path fill="#09B2A5" d="M64.5 35.447c0 4.441-14.328 8.043-32 8.043-17.673 0-32-3.602-32-8.043s14.327-10.096 32-10.096c17.672.001 32 5.655 32 10.096z"/><path fill="#089992" d="M64.5 35.447c0 4.441-14.328 8.043-32 8.043-17.673 0-32-3.602-32-8.043s14.327-8.963 32-8.963c17.672 0 32 4.522 32 8.963z"/><path fill="#048389" d="M64.5 35.447c0 4.441-14.328 8.043-32 8.043-17.673 0-32-3.602-32-8.043s14.327-.172 32-.172c17.672 0 32-4.269 32 .172z"/><path fill="#A0EAEA" d="M45.501 27.746c-.819-5.27-6.32-9.348-13.001-9.348-6.678 0-12.18 4.078-12.999 9.348h26z"/><path fill="#79CCC8" d="M19.501 27.746h26c-.819-5.27-6.32-9.348-13.001-9.348"/><path fill="#66BCB5" d="M39.132 27.746v-1.111a2.054 2.054 0 0 0-2.054-2.055h-9.154c-1.135 0-2.055.92-2.055 2.055v1.111h13.263zM45.501 27.746c-.819-5.27-6.32-9.348-13.001-9.348"/><path fill="#09B2A5" d="M47.083 27.912a.226.226 0 0 1-.225.225H18.431a.226.226 0 0 1 0-.45h28.428a.226.226 0 0 1 .224.225z"/><path fill="#048389" d="M10.365 30.463c.185.357-.143.893-.282.967-.142.072-.767.031-.952-.326l-3.146-6.947c-.184-.355-.22-.705-.078-.777.141-.072.406.156.59.512l3.868 6.571z"/><path fill="#089992" d="M5.984 24.156c-.184-.355-.22-.705-.078-.777.141-.072.406.156.59.512l3.869 6.572c.185.357-.143.893-.282.967"/><path fill="#048389" d="m8.859 35.902-3.953-.711 4.448-4.447.71.711z"/><circle fill="#FF7F00" cx="5.906" cy="23.34" r="1.111"/><path fill="#FA0" d="M5.119 22.553a1.112 1.112 0 1 1 1.574 1.574"/><path fill="#048389" d="M54.635 30.463c-.184.357.143.893.283.967.142.072.766.031.951-.326l3.146-6.947c.185-.355.221-.705.078-.777-.141-.072-.404.156-.588.512l-3.87 6.571z"/><path fill="#089992" d="M59.016 24.156c.185-.355.221-.705.078-.777-.141-.072-.404.156-.588.512l-3.871 6.572c-.184.357.143.893.283.967"/><path fill="#048389" d="m56.142 35.902 3.953-.711-4.449-4.447-.71.711z"/><circle fill="#FF7F00" cx="59.095" cy="23.34" r="1.112"/><path fill="#FA0" d="M59.882 22.553a1.112 1.112 0 1 0-1.574 1.574"/><path fill="#04727A" d="M6.467 34.42c0 .615.08 1.691-.536 1.691-.613 0-1.688-1.076-1.688-1.691a1.112 1.112 0 0 1 2.224 0z"/><circle fill="#BFD7E2" cx="5.354" cy="34.42" r="1.112"/><path fill="#AAC7D1" d="M4.567 33.635a1.112 1.112 0 0 1 1.574 1.572"/><path fill="#04727A" d="M12.499 34.42c0 .615.08 1.691-.536 1.691-.613 0-1.688-1.076-1.688-1.691a1.111 1.111 0 0 1 2.224 0z"/><circle fill="#BFD7E2" cx="11.387" cy="34.42" r="1.112"/><path fill="#AAC7D1" d="M10.6 33.635a1.11 1.11 0 0 1 1.574-.002 1.114 1.114 0 0 1 0 1.574"/><path fill="#04727A" d="M18.53 34.42c0 .615.081 1.691-.535 1.691-.613 0-1.688-1.076-1.688-1.691a1.11 1.11 0 1 1 2.223 0z"/><circle fill="#BFD7E2" cx="17.418" cy="34.42" r="1.112"/><path fill="#AAC7D1" d="M16.632 33.635a1.112 1.112 0 0 1 1.573 1.572"/><path fill="#04727A" d="M24.562 34.42c0 .615.08 1.691-.535 1.691-.613 0-1.689-1.076-1.689-1.691a1.112 1.112 0 0 1 2.224 0z"/><circle fill="#BFD7E2" cx="23.45" cy="34.42" r="1.112"/><path fill="#AAC7D1" d="M22.664 33.635a1.11 1.11 0 0 1 1.574-.002 1.114 1.114 0 0 1 0 1.574"/><path fill="#04727A" d="M30.595 34.42c0 .615.08 1.691-.535 1.691-.613 0-1.688-1.076-1.688-1.691a1.111 1.111 0 0 1 2.223 0z"/><circle fill="#BFD7E2" cx="29.483" cy="34.42" r="1.112"/><path fill="#AAC7D1" d="M28.696 33.635a1.11 1.11 0 0 1 1.574-.002 1.114 1.114 0 0 1 0 1.574"/><path fill="#04727A" d="M36.627 34.42c0 .615.08 1.691-.535 1.691-.614 0-1.688-1.076-1.688-1.691a1.11 1.11 0 1 1 2.223 0z"/><circle fill="#BFD7E2" cx="35.515" cy="34.42" r="1.112"/><path fill="#AAC7D1" d="M34.728 33.635a1.113 1.113 0 0 1 1.574 1.572"/><path fill="#04727A" d="M42.659 34.42c0 .615.079 1.691-.536 1.691-.613 0-1.688-1.076-1.688-1.691a1.111 1.111 0 0 1 2.224 0z"/><circle fill="#BFD7E2" cx="41.547" cy="34.42" r="1.112"/><path fill="#AAC7D1" d="M40.76 33.635a1.112 1.112 0 0 1 1.574 1.572"/><path fill="#04727A" d="M48.691 34.42c0 .615.08 1.691-.535 1.691-.614 0-1.688-1.076-1.688-1.691a1.11 1.11 0 1 1 2.223 0z"/><circle fill="#BFD7E2" cx="47.58" cy="34.42" r="1.112"/><path fill="#AAC7D1" d="M46.792 33.635a1.112 1.112 0 0 1 1.574 1.572"/><path fill="#04727A" d="M54.723 34.42c0 .615.08 1.691-.535 1.691-.613 0-1.688-1.076-1.688-1.691a1.112 1.112 0 0 1 2.223 0z"/><circle fill="#BFD7E2" cx="53.611" cy="34.42" r="1.112"/><path fill="#AAC7D1" d="M52.824 33.635a1.112 1.112 0 0 1 1.574 1.572"/><path fill="#04727A" d="M60.756 34.42c0 .615.08 1.691-.537 1.691-.613 0-1.688-1.076-1.688-1.691a1.112 1.112 0 0 1 2.225 0z"/><circle fill="#BFD7E2" cx="59.644" cy="34.42" r="1.112"/><path fill="#AAC7D1" d="M58.855 33.635a1.112 1.112 0 1 1 1.575 1.572"/><g fill="#048389"><path d="M34.971 29.469a.16.16 0 0 1-.16.16H30.19a.16.16 0 0 1-.16-.16c0-.09.072-.16.16-.16h4.621c.087 0 .16.07.16.16zM34.971 30.623a.16.16 0 0 1-.16.16H30.19a.16.16 0 0 1-.16-.16.16.16 0 0 1 .16-.16h4.621c.087 0 .16.072.16.16zM34.971 31.779a.16.16 0 0 1-.16.16H30.19a.16.16 0 1 1 0-.322h4.621c.087 0 .16.072.16.162z"/></g></svg>